<?xml version="1.0" encoding="UTF-8"?>
<svg class="svg-image" data-name="Layer 2" xmlns="http://www.w3.org/2000/svg" viewBox="0 0 283.76 405.24">
  <defs>
    <style>
      .cls-1 {
        fill: #ffd399;
      }

      .cls-2 {
        fill: #231f20;
      }
    </style>
  </defs>
  <g data-name="Layer 10">
    <g>
      <path class="cls-1" d="m230.55,105.18c4.56,1.06,9.12,2.44,13.36,4.43,5.16,2.42,10,5.5,13.79,9.8,4.14,4.7,5.75,10.45,7.02,16.46,3.22,15.21,3.6,31.08,3.73,46.58.12,14.55-.24,29.13-.98,43.65-1.25,24.51-12.17,50.2-23.29,72.7-4.37,8.84-9.02,17.53-13.88,26.11-2.38,4.2-7.36,9.8-6.68,14.81.19,1.39.79,2.49,1.35,3.72.22.48.44.96.65,1.44.06.16.13.35.22.61.67,1.9,1.33,3.8,1.84,5.75,1.1,4.25,1.69,8.07,1.09,12.47-2.24,16.24-23.57,20.53-37.29,23.49-16.09,3.47-32.17,2.56-48.49,2.52-14.87-.05-29.83-1.35-44.54-3.5-7.17-1.05-14.34-2.29-21.36-4.07-5.04-1.28-10.3-2.07-13.56-5.83-4.05-4.67-3.62-12.3-2.83-17.99.89-6.43,5.29-13.98,2.64-20.17-3.41-7.98-6.82-15.95-10.15-23.97-11.5-27.67-23.14-55.17-28.2-84.85-5.87-34.39-6.37-68.94-7.65-103.69-.36-9.67-.83-19.33-1.27-29-.29-6.33-1.35-13.37-.49-19.68,1.02-7.48,8.99-10.31,15.42-11.64,4.13-.86,16.3-4.15,18.69,1.24,3.44,31.99,6.83,64.04,8.8,96.15.59,9.59,15.59,9.66,15,0-2.01-32.73-5.49-65.4-9-98,0-.06-.02-.12-.03-.18-.02-.58-.1-1.18-.24-1.81-.84-3.62-.86-4.26-1.13-7.58-.47-5.69-.59-11.77,1.39-17.2,2.44-6.69,9.14-8.61,15.76-10.27,6.23-1.56,12.75-1.82,18.55.67,1.85,29.53,3.84,59.05,6.18,88.55.75,9.45,1.53,18.9,2.52,28.33.42,4.03,3.14,7.5,7.5,7.5,3.73,0,7.93-3.45,7.5-7.5-3.85-36.61-5.92-73.44-8.28-110.17-.2-3.04-.39-6.08-.58-9.11,1.51-1.64,3.03-3.28,4.81-4.62,6.28-4.73,14.98-7.18,22.78-5.79,6.26,1.12,11.6,5.37,15.25,10.17,1.53,2.01,2.84,4.22,4,6.46.16.32.32.65.47.97-1.29,37.1-2.04,74.55.55,111.59.67,9.58,15.67,9.65,15,0-2.49-35.66-1.88-71.69-.69-107.42,8.99-2.28,19.64-2.29,26.58,4.75,4.12,4.18,5.79,10.15,7.62,15.56,2.24,6.64,4.12,13.41,5.61,20.26,1.23,5.64,2.19,10.48,2.65,15.75-7.7,7.86-10.98,20.81-13.45,30.86-5.65,22.97-8.01,46.84-9.87,70.42-30.19,9.44-53.86,36.81-61.69,66.83-2.44,9.35,12.03,13.34,14.46,3.99,5.01-19.21,16.34-35.83,32.95-46.84,2.95-1.96,6.01-3.75,9.16-5.36,1.4-.72,2.83-1.39,4.26-2.05.21-.1,1.2-.52,1.43-.62.36-.15.72-.3,1.08-.43,2.42-.92,4.87-1.84,7.39-2.45,3.39-.81,5.26-3.99,5.51-7.23,1.83-23.83,3.96-47.96,9.55-71.26.87-3.64,1.85-7.27,3-10.84.49-1.52,1.02-3.04,1.58-4.54.21-.56.44-1.13.66-1.68.12-.27.42-.95.49-1.11,1.02-2.14,2.16-4.16,3.44-6.16.06-.1.12-.18.17-.26.04-.05.09-.1.13-.15.68.14,1.36.28,2.04.43Z"/>
      <path class="cls-2" d="m282.88,163.31c1.11,20.76.61,41.65-.4,62.41-.8,16.3-5.14,32.2-10.83,47.43-8.58,22.96-19.93,44.8-32.22,65.97,1.46,3.48,2.59,7.15,3.33,10.78,1.76,8.64,1.63,17.54-2.04,25.68-4.99,11.07-15.33,16.62-26.25,20.57-12.96,4.69-26.47,7.54-40.21,8.49-10.43.72-20.85.11-31.28.08-23.66-.08-48.59-2.38-71.48-8.53-10.62-2.86-20.07-7.5-24.13-18.46-4.13-11.14-1.78-24.05,1.64-35.2-7.25-16.79-14.28-33.69-20.99-50.71-4.2-10.64-8.56-21.34-11.74-32.34-3.46-11.97-5.64-24.3-7.41-36.61-3.87-26.85-5.42-53.78-6.05-80.87-.33-14.47-1.01-28.92-1.68-43.38-.47-10.18-2.61-22.47,2.14-31.9,5.69-11.29,18.49-15.28,30.12-16.92,4.95-.7,9.84-.95,14.28-.25,0-7.36,1.27-14.68,4.58-20.96,5.19-9.84,16.74-14.13,27.11-16.07,8.18-1.53,16.82-1.43,24.51,1.64C113.77,3.49,129.97-1.58,143.99.84c12.29,2.12,22.34,11.07,28.41,21.83,13.63-3.34,29.45-1.65,39.83,8.02,5.19,4.84,7.95,11.11,10.37,17.64,2.91,7.88,5.32,15.96,7.17,24.16,1.32,5.84,2.49,11.83,3.18,17.83,11.98,2.42,23.75,7.57,32.69,15.76,15.32,14.04,16.21,37.86,17.25,57.22h-.01Zm-15.41,62.79c.74-14.52,1.1-29.1.98-43.65-.13-15.5-.51-31.37-3.73-46.58-1.27-6.01-2.88-11.76-7.02-16.46-3.79-4.3-8.63-7.38-13.79-9.8-4.24-1.99-8.8-3.37-13.36-4.43-.68-.15-1.36-.29-2.04-.43-.04.05-.09.1-.13.15-.05.08-.11.16-.17.26-1.28,2-2.42,4.02-3.44,6.16-.07.16-.37.84-.49,1.11-.22.55-.45,1.12-.66,1.68-.56,1.5-1.09,3.02-1.58,4.54-1.15,3.57-2.13,7.2-3,10.84-5.59,23.3-7.72,47.43-9.55,71.26-.25,3.24-2.12,6.42-5.51,7.23-2.52.61-4.97,1.53-7.39,2.45-.36.13-.72.28-1.08.43-.23.1-1.22.52-1.43.62-1.43.66-2.86,1.33-4.26,2.05-3.15,1.61-6.21,3.4-9.16,5.36-16.61,11.01-27.94,27.63-32.95,46.84-2.43,9.35-16.9,5.36-14.46-3.99,7.83-30.02,31.5-57.39,61.69-66.83,1.86-23.58,4.22-47.45,9.87-70.42,2.47-10.05,5.75-23,13.45-30.86-.46-5.27-1.42-10.11-2.65-15.75-1.49-6.85-3.37-13.62-5.61-20.26-1.83-5.41-3.5-11.38-7.62-15.56-6.94-7.04-17.59-7.03-26.58-4.75-1.19,35.73-1.8,71.76.69,107.42.67,9.65-14.33,9.58-15,0-2.59-37.04-1.84-74.49-.55-111.59-.15-.32-.31-.65-.47-.97-1.16-2.24-2.47-4.45-4-6.46-3.65-4.8-8.99-9.05-15.25-10.17-7.8-1.39-16.5,1.06-22.78,5.79-1.78,1.34-3.3,2.98-4.81,4.62.19,3.03.38,6.07.58,9.11,2.36,36.73,4.43,73.56,8.28,110.17.43,4.05-3.77,7.5-7.5,7.5-4.36,0-7.08-3.47-7.5-7.5-.99-9.43-1.77-18.88-2.52-28.33-2.34-29.5-4.33-59.02-6.18-88.55-5.8-2.49-12.32-2.23-18.55-.67-6.62,1.66-13.32,3.58-15.76,10.27-1.98,5.43-1.86,11.51-1.39,17.2.27,3.32.29,3.96,1.13,7.58.14.63.22,1.23.24,1.81,0,.06.03.12.03.18,3.51,32.6,6.99,65.27,9,98,.59,9.66-14.41,9.59-15,0-1.97-32.11-5.36-64.16-8.8-96.15-2.39-5.39-14.56-2.1-18.69-1.24-6.43,1.33-14.4,4.16-15.42,11.64-.86,6.31.2,13.35.49,19.68.44,9.67.91,19.33,1.27,29,1.28,34.75,1.78,69.3,7.65,103.69,5.06,29.68,16.7,57.18,28.2,84.85,3.33,8.02,6.74,15.99,10.15,23.97,2.65,6.19-1.75,13.74-2.64,20.17-.79,5.69-1.22,13.32,2.83,17.99,3.26,3.76,8.52,4.55,13.56,5.83,7.02,1.78,14.19,3.02,21.36,4.07,14.71,2.15,29.67,3.45,44.54,3.5,16.32.04,32.4.95,48.49-2.52,13.72-2.96,35.05-7.25,37.29-23.49.6-4.4.01-8.22-1.09-12.47-.51-1.95-1.17-3.85-1.84-5.75-.09-.26-.16-.45-.22-.61-.21-.48-.43-.96-.65-1.44-.56-1.23-1.16-2.33-1.35-3.72-.68-5.01,4.3-10.61,6.68-14.81,4.86-8.58,9.51-17.27,13.88-26.11,11.12-22.5,22.04-48.19,23.29-72.7Z"/>
    </g>
  </g>
</svg>