<?xml version="1.0" encoding="UTF-8"?>
<svg class="svg-image" data-name="Layer 2" xmlns="http://www.w3.org/2000/svg" viewBox="0 0 302.63 327.39">
  <defs>
    <style>
      .cls-1 {
        fill: #ffd399;
      }

      .cls-2 {
        fill: #231f20;
      }
    </style>
  </defs>
  <g data-name="Layer 10">
    <g>
      <path class="cls-2" d="m300,153.42c1.19,9.97,3.17,20.27,2.04,30.33-3.38,29.99-27.48,47.76-42.26,71.91h.02c-1.14,1.87-2.23,3.82-2.7,5.46-.03.08-.05.14-.07.21,1.21,1.25,2.11,4.67,2.64,6.05.72,1.86,1.34,3.77,1.83,5.71,2.52,10.04,2.3,21.6-3.92,30.31-8.84,12.38-26.3,15.86-40.32,18.64-17.18,3.4-34.71,4.52-52.18,4.9-14.13.29-28.3.47-42.37-1.08-13.64-1.51-28.58-4.08-39.92-12.4-11.49-8.44-19.27-21.47-16.82-35.98.77-4.57,2.87-8.42,4.38-12.73,2.21-6.32-.72-12.53-4.06-17.83-9.78-15.54-19.94-30.99-30.61-45.93-.05-.05-.09-.09-.14-.15-.5-.56-.99-1.15-1.49-1.72-1.43-1.63-2.87-3.25-4.3-4.88-1.03-1.18-2.04-2.35-3.05-3.54-.69-.73-1.33-1.49-1.93-2.3-.01-.01-.01-.02-.01-.02-2.57-3.08-5.09-6.22-7.51-9.42-9-11.9-15.19-24.25-16.61-39.32-1.37-14.52.68-33.4,9.4-45.56,4.37-6.09,10.17-11.49,16.57-15.62-.76-15.28,6.88-30.45,20.7-37.73,11.15-5.88,24.12-8.82,36.71-10.3,5.28-8.02,14.12-13.46,23.1-16.53,14.91-5.1,33.77-8.66,49.17-2.98,3.47-3.01,7.64-5.26,11.83-6.95,12.4-4.99,25.88-4.09,38.84-2.31,9.39,1.28,19.59,3.38,26.44,10.5,7.67,7.97,8.57,19.29,10.16,29.66,1.25,8.13,2.57,16.25,3.99,24.35,9.8,2.22,19.77,5.33,28.31,10.47,10.37,6.23,15.38,16.21,17.77,27.8,3.31,16.04,4.43,32.72,6.37,48.98Zm-48.73,88.18c14.22-19.32,36.22-38.3,36.13-64.19-.03-9.67-1.86-19.5-3.01-29.07-1.77-14.69-2.39-30.18-6.31-44.49-2.29-8.35-5.63-12.2-12.8-15.91-7.51-3.89-16.11-6.13-24.42-7.87-13.86,7.75-29.73,12.39-45.51,13.37-6.14.39-13.74-.57-19.5,2.03-5.69,2.57-6.92,13.13-8.24,18.46-1.87,7.56-3.33,15.41-2.96,23.23.29,6.07,3.93,8.58,9.31,11.38,9.62,5,20.35,6.67,30.88,8.62,9.24,1.71,18.48,3.4,27.72,5.08,9.5,1.72,5.45,16.18-3.99,14.46-12.04-2.2-24.09-4.38-36.12-6.66-2.34-.45-4.74-.94-7.15-1.52-11.14,7.4-23.87,17-29.26,29.28-3.64,8.3-5.34,17.85-6,26.84-.5,6.86-.85,16.26,2.24,21.62,4.84,8.38-8.13,15.93-12.95,7.57-4.83-8.37-4.96-19.18-4.33-28.55.71-10.64,2.58-21.54,6.58-31.47,5.09-12.67,15.3-22.86,26.37-31.3-4.29-2.13-8.26-4.76-11.58-8.08-2.78-2.79-4.49-6.01-5.5-9.48-2.3,3.67-4.75,7.26-7.33,10.73-4.72,6.35-9.71,13.01-17.37,15.86-7.61,2.83-16.11,3.72-24.05,2.25-7.79,10.09-17.56,20.15-29.49,24.68-5.39,2.05-11.95,3.05-18.58,2.83,5.14,7.56,10.2,15.18,15.23,22.81,5.05,7.66,11.07,15.41,14.43,24.01,2.72,6.95,3.31,14.79.6,21.83-1.55,4.01-3.2,6.42-3.81,11.05-1.39,10.6,7.83,19.4,16.63,23.57,10.35,4.9,22.5,6.28,33.8,7.03,11.37.76,22.77.59,34.15.36,18.26-.4,36.58-1.49,54.4-5.71,10.96-2.6,26.92-5.34,28.45-18.75.83-7.27-1.75-13.93-4.45-19.51-4.5-9.29,2.45-19.11,7.81-26.4h-.02Zm-18.66-174.13c-1.61-9.36-3.09-18.74-4.49-28.13-.77-5.14-1.6-10.69-3.93-14.69-1.36-2.33-3.74-4.15-6.8-5.37-5.24-2.08-11.11-2.8-16.68-3.39-7.66-.81-15.44-1.3-22.97.66-2.07.54-4.1,1.2-6.01,2.12-1.02.49-2.01,1.05-2.97,1.65-.18.12-1.64,1.15-1.74,1.18-.89.76-1.68,1.63-2.55,2.41-2.13,4.33-4.27,9.3-5.18,14.04.04-.03-.11,1.24-.09,1.52.05.87.05,1.85.14,2.65.31,2.64,1,5.31,1.69,7.87,2.8,10.48,6.94,21.18,13.01,30.3,5.48-1.42,11.45-1.43,16.97-1.66,14.52-.62,28.8-4.22,41.6-11.16Zm-77.9,36.7c1.63-5.5,3.37-11.22,6.74-15.75-7.41-10.85-12.48-24.21-15.49-36.81-1.33-5.59-2.47-11.65-1.19-17.35.77-3.45,1.95-6.91,3.31-10.29-11.31-2.94-25.02.7-35.43,3.9h-.01c-5.3,1.64-10.29,4.3-14.14,8.34-1.63,1.71-1.3,1.18-2.3,2.9-.37.64-1.1,2.07-1.15,2.14-3.29,5.1-4.19,12.88-2.41,18.23,3.05,9.15,8.64,17.68,13.73,25.8,5.69,9.08,11.48,18.4,18.13,26.81,5.11,6.45,15.61,19.16,25.43,16.37.7-8.22,2.46-16.43,4.78-24.29Zm-32.25,52.71c4.75-2.78,9.39-9.5,13.23-15.73-17.81-7.54-31.41-31.24-40.74-45.9-9.05-14.21-20.42-31.47-17.85-48.53-6.49,1.26-13.06,2.87-19.13,5.48-7,3.01-12.58,7.61-14.95,15.13-1.03,3.28-1.47,6.54-1.41,9.97.02.81.07,1.62.14,2.43,3.55,5.49,7.15,10.95,10.77,16.39,12.54,18.84,25.04,39.01,39.81,55.56,1.12,1.26,2.3,2.45,3.52,3.61.02.01.03.03.05.04.7.49,1.42.97,2.17,1.4,1.66.94,3.4,1.59,5.25,2.07,5.8,1.5,14.91.55,19.14-1.92Zm-37.22,13.64c.83-.9,1.65-1.82,2.45-2.74-1.69-1.21-3.29-2.59-4.76-4.15-7.97-8.46-14.67-18.31-21.38-27.77-10.05-14.18-19.76-28.61-29.25-43.17-5.33,3.79-10.17,8.73-12.57,14.53h-.01c-5.91,14.29-6.69,34.33.25,48.32,4.91,9.9,12,18.22,19.1,26.55,3.09,2.16,9.12,3.34,12.52,3.74,6.24.74,13.01.37,18.63-2.68,5.77-3.13,10.59-7.84,15.02-12.63Z"/>
      <path class="cls-1" d="m287.4,177.41c.09,25.89-21.91,44.87-36.13,64.19h.02c-5.36,7.28-12.31,17.1-7.81,26.39,2.7,5.58,5.28,12.24,4.45,19.51-1.53,13.41-17.49,16.15-28.45,18.75-17.82,4.22-36.14,5.31-54.4,5.71-11.38.23-22.78.4-34.15-.36-11.3-.75-23.45-2.13-33.8-7.03-8.8-4.17-18.02-12.97-16.63-23.57.61-4.63,2.26-7.04,3.81-11.05,2.71-7.04,2.12-14.88-.6-21.83-3.36-8.6-9.38-16.35-14.43-24.01-5.03-7.63-10.09-15.25-15.23-22.81,6.63.22,13.19-.78,18.58-2.83,11.93-4.53,21.7-14.59,29.49-24.68,7.94,1.47,16.44.58,24.05-2.25,7.66-2.85,12.65-9.51,17.37-15.86,2.58-3.47,5.03-7.06,7.33-10.73,1.01,3.47,2.72,6.69,5.5,9.48,3.32,3.32,7.29,5.95,11.58,8.08-11.07,8.44-21.28,18.63-26.37,31.3-4,9.93-5.87,20.83-6.58,31.47-.63,9.37-.5,20.18,4.33,28.55,4.82,8.36,17.79.81,12.95-7.57-3.09-5.36-2.74-14.76-2.24-21.62.66-8.99,2.36-18.54,6-26.84,5.39-12.28,18.12-21.88,29.26-29.28,2.41.58,4.81,1.07,7.15,1.52,12.03,2.28,24.08,4.46,36.12,6.66,9.44,1.72,13.49-12.74,3.99-14.46-9.24-1.68-18.48-3.37-27.72-5.08-10.53-1.95-21.26-3.62-30.88-8.62-5.38-2.8-9.02-5.31-9.31-11.38-.37-7.82,1.09-15.67,2.96-23.23,1.32-5.33,2.55-15.89,8.24-18.46,5.76-2.6,13.36-1.64,19.5-2.03,15.78-.98,31.65-5.62,45.51-13.37,8.31,1.74,16.91,3.98,24.42,7.87,7.17,3.71,10.51,7.56,12.8,15.91,3.92,14.31,4.54,29.8,6.31,44.49,1.15,9.57,2.98,19.4,3.01,29.07Z"/>
      <path class="cls-1" d="m228.12,39.34c1.4,9.39,2.88,18.77,4.49,28.13-12.8,6.94-27.08,10.54-41.6,11.16-5.52.23-11.49.24-16.97,1.66-6.07-9.12-10.21-19.82-13.01-30.3-.69-2.56-1.38-5.23-1.69-7.87-.09-.8-.09-1.78-.14-2.65-.02-.28.13-1.55.09-1.52.91-4.74,3.05-9.71,5.18-14.04.87-.78,1.66-1.65,2.55-2.41.1-.03,1.56-1.06,1.74-1.18.96-.6,1.95-1.16,2.97-1.65,1.91-.92,3.94-1.58,6.01-2.12,7.53-1.96,15.31-1.47,22.97-.66,5.57.59,11.44,1.31,16.68,3.39,3.06,1.22,5.44,3.04,6.8,5.37,2.33,4,3.16,9.55,3.93,14.69Z"/>
      <path class="cls-1" d="m161.45,88.42c-3.37,4.53-5.11,10.25-6.74,15.75-2.32,7.86-4.08,16.07-4.78,24.29-9.82,2.79-20.32-9.92-25.43-16.37-6.65-8.41-12.44-17.73-18.13-26.81-5.09-8.12-10.68-16.65-13.73-25.8-1.78-5.35-.88-13.13,2.41-18.23.05-.07.78-1.5,1.15-2.14,1-1.72.67-1.19,2.3-2.9,3.85-4.04,8.84-6.7,14.14-8.33h.01c10.41-3.21,24.12-6.85,35.43-3.91-1.36,3.38-2.54,6.84-3.31,10.29-1.28,5.7-.14,11.76,1.19,17.35,3.01,12.6,8.08,25.96,15.49,36.81Z"/>
      <path class="cls-1" d="m135.69,141.15c-3.84,6.23-8.48,12.95-13.23,15.73-4.23,2.47-13.34,3.42-19.14,1.92-1.85-.48-3.59-1.13-5.25-2.07-.75-.43-1.47-.91-2.17-1.4-.02,0-.03-.03-.05-.04-1.22-1.16-2.4-2.35-3.52-3.61-14.77-16.55-27.27-36.72-39.81-55.56-3.62-5.44-7.22-10.9-10.77-16.39-.07-.81-.12-1.62-.14-2.43-.06-3.43.38-6.69,1.41-9.97,2.37-7.52,7.95-12.12,14.95-15.13,6.07-2.61,12.64-4.22,19.13-5.48-2.57,17.06,8.8,34.32,17.85,48.53,9.33,14.66,22.93,38.36,40.74,45.9Z"/>
      <path class="cls-1" d="m87.69,167.78c-.8.92-1.62,1.84-2.45,2.74-4.43,4.79-9.25,9.5-15.02,12.63-5.62,3.05-12.39,3.42-18.63,2.68-3.4-.4-9.43-1.58-12.52-3.74-7.1-8.33-14.19-16.65-19.1-26.55-6.94-13.99-6.16-34.03-.25-48.32h.01c2.4-5.8,7.24-10.74,12.57-14.53,9.49,14.56,19.2,28.99,29.25,43.17,6.71,9.46,13.41,19.31,21.38,27.77,1.47,1.56,3.07,2.94,4.76,4.15Z"/>
    </g>
  </g>
</svg>