<?xml version="1.0" encoding="UTF-8"?>
<svg class="svg-image" data-name="Layer 2" xmlns="http://www.w3.org/2000/svg" viewBox="0 0 272.9 406.88">
  <defs>
    <style>
      .cls-1 {
        fill: none;
        stroke: #000;
        stroke-miterlimit: 10;
      }

      .cls-2 {
        fill: #ffd399;
      }
    </style>
  </defs>
  <g data-name="Layer 10">
    <g>
      <path d="m261.64,173.35c8.31,17.09,11.8,34.78,10.48,53.73-1.27,18.12-5.14,36.08-10.18,53.5-3.89,13.45-8.47,26.15-16.06,38.01-5.44,8.5-11.46,16.69-17.82,24.54,3.72,14.69,3.18,33.03-7.94,44.02-6.34,6.26-15.41,9.52-23.8,11.9-10.25,2.9-20.88,4.47-31.46,5.62-18.67,2.04-37.57,1.91-56.32,1.33-12.66-.39-25.46-1.42-37.82-4.32-8.24-1.94-17.52-4.46-24.77-9.04-15.7-9.93-12.84-28.68-9.01-44.37-4.54-10.75-8.71-21.66-12.63-32.64-7.21-20.25-13.71-40.93-17.72-62.07-2.07-10.89-3.7-21.92-5.02-32.93-.78-6.49-1.46-13.1-.82-19.63,1.09-11.16,6.38-24.47,14.58-32.23,8.02-7.59,19.06-11.93,30.01-13.8,3.84-7.96,9.22-15.33,16.25-20.64,8.25-6.23,19.31-9.73,29.73-11.67,1.84-16.9,3.69-33.8,5.59-50.7,1.18-10.5,2.36-21.01,3.62-31.51,1.31-10.92,2.45-21.93,10.58-30.21C121.59-.45,137.39-.63,151.18,1.7c12.09,2.04,22.77,8.5,26.09,20.6,14.34-11.23,37.62-10.33,52.94-1.79,16.15,9,19.37,26.8,18.17,43.77-1.85,26.22-4.22,52.42-6.54,78.61,7.84,9.17,14.55,19.66,19.79,30.43v.03Zm-12.79,98.3c4.94-18.12,8.89-36.98,8.58-55.86-.32-19.01-8.21-36.44-18.66-52.01-3.1-4.62-5.8-8.13-9.25-12.26-.14-.17-.26-.34-.39-.51-.11-.1-.22-.19-.32-.3-5.66-5.82-14.2-9.08-21.79-11.48-7.2-2.28-14.55-3.87-22.08-2.36-6.49,1.31-12.72,4.14-16.82,9.53-4.78,6.28-5.76,14.27-5.55,21.93,3.66,5.82,7.12,11.77,10.42,17.8,6.79,12.41,14.73,25.3,12.33,40-2.7,16.52-18.17,25.77-33.55,28.25-11.08,1.79-21.39.08-30.36-4.69-2.63,13.21-13.89,24.13-28,27.66-19.72,4.94-40.45,1.55-57.06-10.06-4.6-3.21-9.07-6.68-13.4-10.31,6.01,26.89,14.62,53.03,24.94,78.78.89,2.23,1.8,4.45,2.72,6.67.13.31.22.53.29.7.02.05.1.23.28.66,1.95,4.58,0,8.92-.95,13.54-.7,3.36-1.28,6.71-1.43,10.15-.14,3.31-.22,5.05.88,7.96-.01-.03-.01-.04-.01-.05.07-.01.89,1.64,1.1,1.93.01.02.02.03.02.04.08.08.18.18.31.32.32.33.66.66,1,.97.37.33.37.37.37.37,0,0,.1.03.72.43.54.34,1.1.68,1.66.99.8.45,2.52,1.28,2.83,1.41,2.77,1.19,5.7,2.08,8.58,2.98,19.88,6.21,40.68,6.26,61.31,6.34,14.66.06,29.23-.28,43.78-2.35,8.44-1.2,16.9-2.84,25-5.51,6.09-2.01,12.81-4.66,15.96-10.63,4.96-9.41,2.19-19.78.25-29.25-1.07-5.24,3.45-9.12,6.42-12.91,4.66-5.95,9.11-12.08,13.23-18.42,8.2-12.63,12.7-26,16.64-40.45Zm-15.49-206.99c.87-12.31.53-26.01-12.22-31.99-7.13-3.34-16.38-4.3-24.11-3.01-3.21.53-6.25,1.55-9,3.29-1.54.97-3.86,3.21-4.47,4.02-2.97,3.95-5.02,37.05-5.12,48.64-.11,12.49-.25,24.99-.39,37.48.58-.16,1.17-.31,1.77-.45,10.59-2.41,20.94-1.13,31.2,2.12,5.57,1.77,11.42,3.94,16.8,6.84.69-7.89,1.38-15.78,2.05-23.67,1.23-14.41,2.47-28.84,3.49-43.27Zm-65.25,165.19c3.36-4.92,3.41-11.25,1.64-16.74-.06-.17-.15-.5-.68-1.68-.42-.92-.85-1.84-1.29-2.76-1.17-2.43-2.38-4.84-3.61-7.23-3.53-6.85-7.28-13.59-11.24-20.2-8.12-13.53-17.07-28.86-31.05-37.04-5.29-3.1-10.99-5.22-16.96-6.57-1.31-.3-2.63-.53-3.95-.77-.27-.04-.55-.08-.82-.12h-.1c-.59-.05-1.18-.12-1.77-.15-9.09,1.44-19.14,3.94-26.74,8.97-4.35,2.87-7.63,7.15-10.31,11.56-.32.53-.62,1.08-.93,1.62,11.92,7.28,21.73,15.91,30.13,27.47,5.19,7.14,10.18,14.42,15.03,21.79,4.19,6.36,8.75,12.84,12.22,19.7,9.29,12.05,24.27,14.92,38.24,10.21,4.46-1.5,9.36-3.91,12.19-8.06Zm-4.65-147.57c.09-9.82,1.06-47.75-.28-54.52-2.09-10.6-14.11-12.02-23.55-12.37-11.47-.42-20.3,4.05-22.84,15.75-1.39,6.37-1.96,15.16-2.79,22.39h-.01c-1.26,10.94-2.49,21.88-3.7,32.83-1.34,12.05-2.66,24.1-3.97,36.16,11.76,2.16,23.16,7.67,32.18,15.16,4.35,3.61,8.13,7.92,11.61,12.46,2.48-7.63,6.77-14.34,12.85-19.36.19-16.17.36-32.33.5-48.5Zm-56.76,165.42c1.07-4.39-.07-8.51-1.97-12.41-.04-.04-.07-.08-.1-.12-.4-.52-.67-1.1-.85-1.71-1.45-2.64-3.17-5.17-4.69-7.61-7.77-12.51-16-24.93-24.99-36.61-.03-.03-.04-.05-.06-.07-.04-.04-.09-.1-.14-.16-.25-.3-.48-.61-.74-.9-.49-.56-.99-1.11-1.49-1.65-1.41-1.53-2.86-3.02-4.4-4.43-5.46-5.02-11.82-8.94-18.29-12.54-.08.01-.16.03-.24.04-2.7.5-5.36,1.15-7.98,1.95-6.3,1.94-13.06,4.99-17.18,10.37-1.69,2.21-2.81,4.97-4,7.48-.49,1.02-.97,2.06-1.43,3.1,0,.03-.03.06-.04.09-.02.05-.04.11-.07.18-.19.48-.39.96-.55,1.45v-.02c-3.3,9.76-1.81,20.82-.13,32.54.27,1.85.56,3.7.85,5.54,8.21,8.28,17.08,16.22,26.71,22.8,6.41,4.38,12.52,7.32,20.23,8.64,9,1.54,18.84,1.15,27.54-1.74,6.51-2.17,12.35-7.36,14.01-14.21Z"/>
      <path class="cls-2" d="m49.67,375.39s0,.02.01.05c-1.1-2.91-1.02-4.65-.88-7.96.15-3.44.73-6.79,1.43-10.15.96-4.62,2.9-8.96.95-13.54-.18-.43-.26-.61-.28-.66-.07-.17-.16-.39-.29-.7-.92-2.22-1.83-4.44-2.72-6.67-10.32-25.75-18.93-51.89-24.94-78.78,4.33,3.63,8.8,7.1,13.4,10.31,16.61,11.61,37.34,15,57.06,10.06,14.11-3.53,25.37-14.45,28-27.66,8.97,4.77,19.28,6.48,30.36,4.69,15.38-2.48,30.85-11.73,33.55-28.25,2.4-14.7-5.54-27.59-12.33-40-3.3-6.03-6.76-11.98-10.42-17.8-.21-7.66.77-15.65,5.55-21.93,4.1-5.39,10.33-8.22,16.82-9.53,7.53-1.51,14.88.08,22.08,2.36,7.59,2.4,16.13,5.66,21.79,11.48.1.11.21.2.32.3.13.17.25.34.39.51,3.45,4.13,6.15,7.64,9.25,12.26,10.45,15.57,18.34,33,18.66,52.01.31,18.88-3.64,37.74-8.58,55.86-3.94,14.45-8.44,27.82-16.64,40.45-4.12,6.34-8.57,12.47-13.23,18.42-2.97,3.79-7.49,7.67-6.42,12.91,1.94,9.47,4.71,19.84-.25,29.25-3.15,5.97-9.87,8.62-15.96,10.63-8.1,2.67-16.56,4.31-25,5.51-14.55,2.07-29.12,2.41-43.78,2.35-20.63-.08-41.43-.13-61.31-6.34-2.88-.9-5.81-1.79-8.58-2.98-.31-.13-2.03-.96-2.83-1.41-.56-.31-1.12-.65-1.66-.99-.62-.4-.72-.43-.72-.43,0,0,0-.04-.37-.37-.34-.31-.68-.64-1-.97-.13-.14-.23-.24-.31-.32,0-.01-.01-.02-.02-.04-.21-.29-1.03-1.94-1.1-1.93Z"/>
      <path class="cls-2" d="m221.14,32.67c12.75,5.98,13.09,19.68,12.22,31.99-1.02,14.43-2.26,28.86-3.49,43.27-.67,7.89-1.36,15.78-2.05,23.67-5.38-2.9-11.23-5.07-16.8-6.84-10.26-3.25-20.61-4.53-31.2-2.12-.6.14-1.19.29-1.77.45.14-12.49.28-24.99.39-37.48.1-11.59,2.15-44.69,5.12-48.64.61-.81,2.93-3.05,4.47-4.02,2.75-1.74,5.79-2.76,9-3.29,7.73-1.29,16.98-.33,24.11,3.01Z"/>
      <path class="cls-2" d="m169.75,213.11c1.77,5.49,1.72,11.82-1.64,16.74-2.83,4.15-7.73,6.56-12.19,8.06-13.97,4.71-28.95,1.84-38.24-10.21-3.47-6.86-8.03-13.34-12.22-19.7-4.85-7.37-9.84-14.65-15.03-21.79-8.4-11.56-18.21-20.19-30.13-27.47.31-.54.61-1.09.93-1.62,2.68-4.41,5.96-8.69,10.31-11.56,7.6-5.03,17.65-7.53,26.74-8.97.59.03,1.18.1,1.77.15h.1c.27.04.55.08.82.12,1.32.24,2.64.47,3.95.77,5.97,1.35,11.67,3.47,16.96,6.57,13.98,8.18,22.93,23.51,31.05,37.04,3.96,6.61,7.71,13.35,11.24,20.2,1.23,2.39,2.44,4.8,3.61,7.23.44.92.87,1.84,1.29,2.76.53,1.18.62,1.51.68,1.68Z"/>
      <path class="cls-2" d="m163.18,27.76c1.34,6.77.37,44.7.28,54.52-.14,16.17-.31,32.33-.5,48.5-6.08,5.02-10.37,11.73-12.85,19.36-3.48-4.54-7.26-8.85-11.61-12.46-9.02-7.49-20.42-13-32.18-15.16,1.31-12.06,2.63-24.11,3.97-36.16,1.21-10.95,2.44-21.89,3.7-32.83h.01c.83-7.23,1.4-16.02,2.79-22.39,2.54-11.7,11.37-16.17,22.84-15.75,9.44.35,21.46,1.77,23.55,12.37Z"/>
      <path class="cls-2" d="m104.73,235.29c1.9,3.9,3.04,8.02,1.97,12.41-1.66,6.85-7.5,12.04-14.01,14.21-8.7,2.89-18.54,3.28-27.54,1.74-7.71-1.32-13.82-4.26-20.23-8.64-9.63-6.58-18.5-14.52-26.71-22.8-.29-1.84-.58-3.69-.85-5.54-1.68-11.72-3.17-22.78.12-32.54v.02c.17-.49.37-.97.56-1.45.03-.07.05-.13.07-.18.01-.03.03-.06.04-.09.46-1.04.94-2.08,1.43-3.1,1.19-2.51,2.31-5.27,4-7.48,4.12-5.38,10.88-8.43,17.18-10.37,2.62-.8,5.28-1.45,7.98-1.95.08-.01.16-.03.24-.04,6.47,3.6,12.83,7.52,18.29,12.54,1.54,1.41,2.99,2.9,4.4,4.43.5.54,1,1.09,1.49,1.65.26.29.49.6.74.9.05.06.1.12.14.16.02.02.03.04.06.07,8.99,11.68,17.22,24.1,24.99,36.61,1.52,2.44,3.24,4.97,4.69,7.61.18.61.45,1.19.85,1.71.03.04.06.08.1.12Z"/>
    </g>
    <g>
      <path class="cls-1" d="m261.63,173.32c-5.24-10.77-11.95-21.26-19.79-30.43,2.32-26.19,4.69-52.39,6.54-78.61,1.2-16.97-2.02-34.77-18.17-43.77-15.32-8.54-38.6-9.44-52.94,1.79-3.32-12.1-14-18.56-26.09-20.6-13.79-2.33-29.59-2.15-40.07,8.54-8.13,8.28-9.27,19.29-10.58,30.21-1.26,10.5-2.44,21.01-3.62,31.51-1.9,16.9-3.75,33.8-5.59,50.7-10.42,1.94-21.48,5.44-29.73,11.67-7.03,5.31-12.41,12.68-16.25,20.64-10.95,1.87-21.99,6.21-30.01,13.8-8.2,7.76-13.49,21.07-14.58,32.23-.64,6.53.04,13.14.82,19.63,1.32,11.01,2.95,22.04,5.02,32.93,4.01,21.14,10.51,41.82,17.72,62.07,3.92,10.98,8.09,21.89,12.63,32.64-3.83,15.69-6.69,34.44,9.01,44.37,7.25,4.58,16.53,7.1,24.77,9.04,12.36,2.9,25.16,3.93,37.82,4.32,18.75.58,37.65.71,56.32-1.33,10.58-1.15,21.21-2.72,31.46-5.62,8.39-2.38,17.46-5.64,23.8-11.9,11.12-10.99,11.66-29.33,7.94-44.02,6.36-7.85,12.38-16.04,17.82-24.54,7.59-11.86,12.17-24.56,16.06-38.01,5.04-17.42,8.91-35.38,10.18-53.5,1.32-18.95-2.17-36.64-10.48-53.73v-.03Z"/>
      <path class="cls-1" d="m183.56,36.97c.61-.81,2.93-3.05,4.47-4.02,2.75-1.74,5.79-2.76,9-3.29,7.73-1.29,16.98-.33,24.11,3.01,12.75,5.98,13.09,19.68,12.22,31.99-1.02,14.43-2.26,28.86-3.49,43.27-.67,7.89-1.36,15.78-2.05,23.67-5.38-2.9-11.23-5.07-16.8-6.84-10.26-3.25-20.61-4.53-31.2-2.12-.6.14-1.19.29-1.77.45.14-12.49.28-24.99.39-37.48.1-11.59,2.15-44.69,5.12-48.64Z"/>
      <path class="cls-1" d="m114,53.53c.83-7.23,1.4-16.02,2.79-22.39,2.54-11.7,11.37-16.17,22.84-15.75,9.44.35,21.46,1.77,23.55,12.37,1.34,6.77.37,44.7.28,54.52-.14,16.17-.31,32.33-.5,48.5-6.08,5.02-10.37,11.73-12.85,19.36-3.48-4.54-7.26-8.85-11.61-12.46-9.02-7.49-20.42-13-32.18-15.16,1.31-12.06,2.63-24.11,3.97-36.16,1.21-10.95,2.44-21.89,3.7-32.83h.01Z"/>
      <path class="cls-1" d="m71.54,145.56c-4.35,2.87-7.63,7.15-10.31,11.56-.32.53-.62,1.08-.93,1.62,11.92,7.28,21.73,15.91,30.13,27.47,5.19,7.14,10.18,14.42,15.03,21.79,4.19,6.36,8.75,12.84,12.22,19.7,9.29,12.05,24.27,14.92,38.24,10.21,4.46-1.5,9.36-3.91,12.19-8.06,3.36-4.92,3.41-11.25,1.64-16.74-.06-.17-.15-.5-.68-1.68-.42-.92-.85-1.84-1.29-2.76-1.17-2.43-2.38-4.84-3.61-7.23-3.53-6.85-7.28-13.59-11.24-20.2-8.12-13.53-17.07-28.86-31.05-37.04-5.29-3.1-10.99-5.22-16.96-6.57-1.31-.3-2.63-.53-3.95-.77-.27-.04-.55-.08-.82-.12h-.1c-.59-.05-1.18-.12-1.77-.15-9.09,1.44-19.14,3.94-26.74,8.97Z"/>
      <path class="cls-1" d="m17.49,194.15c.16-.49.36-.97.55-1.45.03-.07.05-.13.07-.18.01-.03.03-.06.04-.09.46-1.04.94-2.08,1.43-3.1,1.19-2.51,2.31-5.27,4-7.48,4.12-5.38,10.88-8.43,17.18-10.37,2.62-.8,5.28-1.45,7.98-1.95.08-.01.16-.03.24-.04,6.47,3.6,12.83,7.52,18.29,12.54,1.54,1.41,2.99,2.9,4.4,4.43.5.54,1,1.09,1.49,1.65.26.29.49.6.74.9.05.06.1.12.14.16.02.02.03.04.06.07,8.99,11.68,17.22,24.1,24.99,36.61,1.52,2.44,3.24,4.97,4.69,7.61.18.61.45,1.19.85,1.71.03.04.06.08.1.12,1.9,3.9,3.04,8.02,1.97,12.41-1.66,6.85-7.5,12.04-14.01,14.21-8.7,2.89-18.54,3.28-27.54,1.74-7.71-1.32-13.82-4.26-20.23-8.64-9.63-6.58-18.5-14.52-26.71-22.8-.29-1.84-.58-3.69-.85-5.54-1.68-11.72-3.17-22.78.12-32.54v.02Z"/>
      <line class="cls-1" x1="49.67" y1="375.39" x2="49.67" y2="375.38"/>
      <path class="cls-1" d="m49.67,375.39s0,.02.01.05c-1.1-2.91-1.02-4.65-.88-7.96.15-3.44.73-6.79,1.43-10.15.96-4.62,2.9-8.96.95-13.54-.18-.43-.26-.61-.28-.66-.07-.17-.16-.39-.29-.7-.92-2.22-1.83-4.44-2.72-6.67-10.32-25.75-18.93-51.89-24.94-78.78,4.33,3.63,8.8,7.1,13.4,10.31,16.61,11.61,37.34,15,57.06,10.06,14.11-3.53,25.37-14.45,28-27.66,8.97,4.77,19.28,6.48,30.36,4.69,15.38-2.48,30.85-11.73,33.55-28.25,2.4-14.7-5.54-27.59-12.33-40-3.3-6.03-6.76-11.98-10.42-17.8-.21-7.66.77-15.65,5.55-21.93,4.1-5.39,10.33-8.22,16.82-9.53,7.53-1.51,14.88.08,22.08,2.36,7.59,2.4,16.13,5.66,21.79,11.48.1.11.21.2.32.3.13.17.25.34.39.51,3.45,4.13,6.15,7.64,9.25,12.26,10.45,15.57,18.34,33,18.66,52.01.31,18.88-3.64,37.74-8.58,55.86-3.94,14.45-8.44,27.82-16.64,40.45-4.12,6.34-8.57,12.47-13.23,18.42-2.97,3.79-7.49,7.67-6.42,12.91,1.94,9.47,4.71,19.84-.25,29.25-3.15,5.97-9.87,8.62-15.96,10.63-8.1,2.67-16.56,4.31-25,5.51-14.55,2.07-29.12,2.41-43.78,2.35-20.63-.08-41.43-.13-61.31-6.34-2.88-.9-5.81-1.79-8.58-2.98-.31-.13-2.03-.96-2.83-1.41-.56-.31-1.12-.65-1.66-.99-.62-.4-.72-.43-.72-.43,0,0,0-.04-.37-.37-.34-.31-.68-.64-1-.97-.13-.14-.23-.24-.31-.32,0-.01-.01-.02-.02-.04-.21-.29-1.03-1.94-1.1-1.93Z"/>
    </g>
  </g>
</svg>